<?xml version="1.0" encoding="iso-8859-1"?>
<!-- Uploaded to: SVG Repo, www.svgrepo.com, Generator: SVG Repo Mixer Tools -->
<!DOCTYPE svg PUBLIC "-//W3C//DTD SVG 1.1//EN" "http://www.w3.org/Graphics/SVG/1.1/DTD/svg11.dtd">
<svg fill="#000000" version="1.1" id="Capa_1" xmlns="http://www.w3.org/2000/svg" xmlns:xlink="http://www.w3.org/1999/xlink" 
	 width="800px" height="800px" viewBox="0 0 30.135 30.135"
	 xml:space="preserve">
<g>
	<g>
		<g>
			<path d="M13.234,23.983c-1.004,1.002-2.752,1.001-3.752,0c-0.391-0.392-1.023-0.392-1.414,0c-0.391,0.391-0.391,1.022,0,1.414
				c0.878,0.879,2.047,1.362,3.29,1.362c1.242,0,2.411-0.483,3.29-1.362c0.391-0.391,0.391-1.022,0-1.414
				C14.257,23.593,13.626,23.593,13.234,23.983z"/>
			<path d="M27.617,11.667c-0.444-0.119-0.896-0.012-1.236,0.245c-1.172-1.439-3.911-4.037-7.371-2.239c0,0-1.779-4.643,0.968-7.309
				c0.187,0.228,0.439,0.403,0.746,0.485c0.772,0.207,1.563-0.252,1.771-1.026c0.206-0.772-0.254-1.567-1.024-1.773
				c-0.773-0.207-1.569,0.252-1.775,1.025c-0.042,0.157-0.05,0.312-0.04,0.466c-2.2,0.232-6.156,1.213-7.78,5.226
				c0,0-2.07-5.078-7.6-3.616C4.136,2.685,3.77,2.298,3.265,2.165C2.494,1.959,1.697,2.419,1.492,3.192
				C1.286,3.966,1.745,4.76,2.518,4.966C3.291,5.173,4.084,4.713,4.289,3.94C4.301,3.896,4.303,3.852,4.31,3.808
				C8.768,5.861,6.787,15.359,6.789,15.39c-2.12,1.458-3.515,3.899-3.515,6.662c0,4.457,3.626,8.083,8.084,8.083
				c4.457,0,8.083-3.626,8.083-8.083c0-1.244-0.291-2.419-0.796-3.473c0.022-0.03,1.709-5.432,7.188-5.81
				c-0.157,0.748,0.289,1.499,1.038,1.698c0.773,0.207,1.567-0.253,1.772-1.026C28.851,12.667,28.391,11.874,27.617,11.667z
				 M11.359,28.135c-3.354,0-6.084-2.729-6.084-6.083c0-0.824,0.166-1.607,0.464-2.326l1.208,1.179
				C7,20.956,7.023,21.029,7.011,21.101l-0.316,1.842c-0.015,0.084,0.021,0.168,0.089,0.219c0.068,0.05,0.159,0.056,0.234,0.017
				l1.654-0.87c0.064-0.033,0.143-0.033,0.207,0l1.654,0.87c0.075,0.039,0.166,0.033,0.234-0.017
				c0.068-0.051,0.104-0.135,0.089-0.219l-0.315-1.842c-0.012-0.072,0.012-0.146,0.064-0.196l1.338-1.306
				c0.061-0.059,0.083-0.146,0.057-0.228c-0.026-0.081-0.097-0.141-0.181-0.152L9.971,18.95c-0.073-0.012-0.136-0.058-0.168-0.122
				l-0.827-1.677c-0.038-0.075-0.115-0.124-0.2-0.124s-0.162,0.049-0.2,0.124l-0.827,1.677c-0.032,0.064-0.095,0.109-0.168,0.122
				l-1.583,0.229c0.565-1.052,1.432-1.919,2.483-2.485c1.008,0.479,2.388,0.978,3.944,1.394c1.547,0.413,2.982,0.668,4.093,0.757
				c0.582,0.934,0.924,2.03,0.924,3.208C17.44,25.406,14.713,28.135,11.359,28.135z M7.763,20.426c0-0.559,0.454-1.012,1.011-1.012
				c0.56,0,1.013,0.453,1.013,1.012c0,0.56-0.453,1.012-1.013,1.012C8.218,21.438,7.763,20.984,7.763,20.426z"/>
			<circle cx="13.941" cy="20.426" r="1.346"/>
		</g>
	</g>
</g>
</svg>